HIERARCHY
ROOT Hips
{
	OFFSET 0.000000 0.000000 0.000000
	CHANNELS 6 Xposition Yposition Zposition Xrotation Yrotation Zrotation
	JOINT LeftUpLeg_virtual
	{
		OFFSET 0.000000 0.000000 0.000000
		CHANNELS 3 Xrotation Yrotation Zrotation
		JOINT LeftUpLeg
		{
			OFFSET 13.026900 -6.336304 -1.092800
			CHANNELS 3 Xrotation Yrotation Zrotation
			JOINT LeftLeg
			{
				OFFSET 0.524474 -46.096886 9.782700
				CHANNELS 3 Xrotation Yrotation Zrotation
				JOINT LeftFoot
				{
					OFFSET -0.524474 -53.427422 -12.948200
					CHANNELS 3 Xrotation Yrotation Zrotation
					JOINT LeftToeBase
					{
						OFFSET 0.192200 -14.009700 16.364100
						CHANNELS 3 Xrotation Yrotation Zrotation
						JOINT LeftToe_End
						{
							OFFSET -1.784700 -0.561700 9.474800
							CHANNELS 3 Xrotation Yrotation Zrotation
							End Site
							{
								OFFSET 0 0 0
							}
						}
					}
				}
			}
		}
	}
	JOINT RightUpLeg_virtual
	{
		OFFSET 0.000000 0.000000 0.000000
		CHANNELS 3 Xrotation Yrotation Zrotation
		JOINT RightUpLeg
		{
			OFFSET -12.883000 -6.336304 -1.092800
			CHANNELS 3 Xrotation Yrotation Zrotation
			JOINT RightLeg
			{
				OFFSET -0.524587 -46.096825 9.782800
				CHANNELS 3 Xrotation Yrotation Zrotation
				JOINT RightFoot
				{
					OFFSET 0.524587 -53.427383 -12.948300
					CHANNELS 3 Xrotation Yrotation Zrotation
					JOINT RightToeBase
					{
						OFFSET -0.192200 -14.009700 16.364100
						CHANNELS 3 Xrotation Yrotation Zrotation
						JOINT RightToe_End
						{
							OFFSET 1.784700 -0.561700 9.474800
							CHANNELS 3 Xrotation Yrotation Zrotation
							End Site
							{
								OFFSET 0 0 0
							}
						}
					}
				}
			}
		}
	}
	JOINT Spine_virtual
	{
		OFFSET 0.000000 0.000000 0.000000
		CHANNELS 3 Xrotation Yrotation Zrotation
		JOINT Spine
		{
			OFFSET 0.072000 7.257294 -0.789700
			CHANNELS 3 Xrotation Yrotation Zrotation
			JOINT Spine1
			{
				OFFSET 0.000000 12.508769 -0.658067
				CHANNELS 3 Xrotation Yrotation Zrotation
				JOINT Spine1_split
				{
					OFFSET 0.000000 12.508769 -0.658067
					CHANNELS 3 Xrotation Yrotation Zrotation
					JOINT Spine2
					{
						OFFSET 0.000000 12.508769 -0.658067
						CHANNELS 3 Xrotation Yrotation Zrotation
						JOINT Neck_virtual
						{
							OFFSET 0.000000 0.000000 0.000000
							CHANNELS 3 Xrotation Yrotation Zrotation
							JOINT Neck
							{
								OFFSET 0.000000 14.033295 7.520400
								CHANNELS 3 Xrotation Yrotation Zrotation
								JOINT Head
								{
									OFFSET 0.000000 8.198502 5.703100
									CHANNELS 3 Xrotation Yrotation Zrotation
									JOINT HeadTop_End
									{
										OFFSET 0.000000 17.760803 13.332701
										CHANNELS 3 Xrotation Yrotation Zrotation
										End Site
										{
											OFFSET 0 0 0
										}
									}
								}
							}
						}
						JOINT LeftShoulder_virtual
						{
							OFFSET 0.000000 0.000000 0.000000
							CHANNELS 3 Xrotation Yrotation Zrotation
							JOINT LeftShoulder
							{
								OFFSET 6.292450 5.785301 -0.669000
								CHANNELS 3 Xrotation Yrotation Zrotation
								JOINT LeftShoulder_split
								{
									OFFSET 6.292450 5.785301 -0.669000
									CHANNELS 3 Xrotation Yrotation Zrotation
									JOINT LeftArm
									{
										OFFSET 13.907140 -6.093903 1.965100
										CHANNELS 3 Xrotation Yrotation Zrotation
										JOINT LeftForeArm
										{
											OFFSET 34.140198 0.000000 0.000000
											CHANNELS 3 Xrotation Yrotation Zrotation
											JOINT LeftHand
											{
												OFFSET 40.960209 0.000000 0.000000
												CHANNELS 3 Xrotation Yrotation Zrotation
												End Site
												{
													OFFSET 0 0 0
												}
											}
										}
									}
								}
							}
						}
						JOINT RightShoulder_virtual
						{
							OFFSET 0.000000 0.000000 0.000000
							CHANNELS 3 Xrotation Yrotation Zrotation
							JOINT RightShoulder
							{
								OFFSET -6.292450 5.785301 -0.669000
								CHANNELS 3 Xrotation Yrotation Zrotation
								JOINT RightShoulder_split
								{
									OFFSET -6.292450 5.785301 -0.669000
									CHANNELS 3 Xrotation Yrotation Zrotation
									JOINT RightArm
									{
										OFFSET -13.907140 -6.093903 1.965100
										CHANNELS 3 Xrotation Yrotation Zrotation
										JOINT RightForeArm
										{
											OFFSET -34.140198 0.000000 0.000000
											CHANNELS 3 Xrotation Yrotation Zrotation
											JOINT RightHand
											{
												OFFSET -40.960209 0.000000 0.000000
												CHANNELS 3 Xrotation Yrotation Zrotation
												End Site
												{
													OFFSET 0 0 0
												}
											}
										}
									}
								}
							}
						}
					}
				}
			}
		}
	}
}
MOTION
Frames: 6
Frame Time: 0.03333333
-0.262183 127.082748 -1.329605 0.000000 0.000000 0.000000 -87.565935 -7.049027 -1.454877 3.604604 23.246313 12.733507 -4.773098 1.048262 4.182735 16.904599 27.758860 -19.833563 -3.602739 -0.276990 0.653491 0.000000 0.000000 0.000000 -90.014954 -3.505842 0.777859 1.779599 -23.924192 -16.042368 -3.069221 -2.701906 -4.776591 29.197891 -30.460547 29.765753 -10.016707 0.598361 -1.315534 0.000000 0.000000 0.000000 -87.688783 -7.556440 -3.155849 0.803569 -0.350597 0.037186 -1.320849 0.456148 -0.259184 0.699050 0.908216 -0.358005 0.000000 0.000000 0.000000 -1.460728 0.502286 -0.294720 -5.363887 4.363158 -8.800580 3.263550 8.137185 -11.357255 0.000000 0.000000 0.000000 -0.380848 0.547440 -0.113555 0.351367 -6.277144 -0.783977 -0.648326 1.782615 -3.039272 45.253418 -42.193880 -31.348273 4.780878 -86.352347 4.023945 0.000000 0.000000 0.000000 -0.203605 0.865450 -0.477738 0.339422 0.605300 2.662692 7.627673 7.899623 -0.827669 -4.744897 1.143607 81.110525 -179.233207 54.366772 -179.874944 0.000000 0.000000 0.000000 
-0.234227 127.090317 -1.309738 0.000000 0.000000 0.000000 -87.571133 -7.038628 -1.442598 3.602811 23.231586 12.730603 -4.781726 1.034435 4.170622 16.895842 27.747725 -19.819857 -3.601278 -0.277779 0.655571 0.000000 0.000000 0.000000 -90.012727 -3.500903 0.787318 1.768558 -23.929861 -16.052823 -3.081511 -2.700658 -4.780079 29.203830 -30.452801 29.765848 -10.030216 0.594090 -1.312243 0.000000 0.000000 0.000000 -87.681659 -7.532188 -3.149067 0.812407 -0.346447 0.053409 -1.317378 0.459813 -0.256357 0.719104 0.901529 -0.344439 0.000000 0.000000 0.000000 -1.467857 0.508137 -0.293136 -5.314025 4.418964 -8.842218 3.343582 8.245980 -11.351513 0.000000 0.000000 0.000000 -0.375241 0.549249 -0.123636 0.351347 -6.286248 -0.792406 -0.632122 1.840903 -3.008677 45.231401 -42.206577 -31.362477 4.813785 -86.352668 4.057675 0.000000 0.000000 0.000000 -0.188803 0.879984 -0.468315 0.348580 0.605202 2.671262 7.628509 7.893316 -0.863096 -4.708787 1.194541 81.056833 -179.261771 54.382263 -179.838922 0.000000 0.000000 0.000000 
-0.207110 127.101776 -1.291729 0.000000 0.000000 0.000000 -87.575709 -7.027782 -1.425358 3.602952 23.224853 12.720076 -4.790836 1.011284 4.160314 16.882179 27.734181 -19.803789 -3.591910 -0.279250 0.654484 0.000000 0.000000 0.000000 -90.011334 -3.496061 0.799679 1.753037 -23.945006 -16.069057 -3.089692 -2.690791 -4.786769 29.196856 -30.448854 29.758974 -10.060063 0.590875 -1.307443 0.000000 0.000000 0.000000 -87.679582 -7.520954 -3.151803 0.825331 -0.349603 0.078371 -1.316908 0.462650 -0.251215 0.728131 0.891627 -0.317324 0.000000 0.000000 0.000000 -1.478252 0.512418 -0.290348 -5.329284 4.455823 -8.832337 3.714205 8.370538 -11.531535 0.000000 0.000000 0.000000 -0.369825 0.546530 -0.129752 0.346835 -6.281230 -0.810603 -0.604942 1.902173 -2.955903 45.185359 -42.209729 -31.418986 4.710040 -86.351917 3.958644 0.000000 0.000000 0.000000 -0.176196 0.891194 -0.458219 0.359095 0.596957 2.707166 7.623365 7.891368 -0.894071 -4.701093 1.303901 80.965472 -179.284652 54.435228 -179.796848 0.000000 0.000000 0.000000 
-0.182094 127.114883 -1.282898 0.000000 0.000000 0.000000 -87.579814 -7.016875 -1.404570 3.603396 23.224994 12.705093 -4.795432 0.976819 4.153219 16.862007 27.717568 -19.790750 -3.577998 -0.281094 0.650870 0.000000 0.000000 0.000000 -90.009995 -3.489560 0.815216 1.731659 -23.969321 -16.089752 -3.088710 -2.671366 -4.794824 29.183923 -30.445158 29.750057 -10.108483 0.588483 -1.300562 0.000000 0.000000 0.000000 -87.685791 -7.521944 -3.164864 0.839588 -0.360163 0.108060 -1.320600 0.464325 -0.244591 0.724552 0.878966 -0.290566 0.000000 0.000000 0.000000 -1.492723 0.515785 -0.285085 -5.406397 4.475072 -8.785363 4.360651 8.500011 -11.889897 0.000000 0.000000 0.000000 -0.363751 0.539493 -0.132097 0.339979 -6.267055 -0.844622 -0.569175 1.954645 -2.880241 45.125550 -42.204347 -31.496710 4.464729 -86.331576 3.723778 0.000000 0.000000 0.000000 -0.166418 0.897671 -0.449282 0.371075 0.573454 2.760337 7.616155 7.903568 -0.921744 -4.713378 1.452592 80.851838 -179.291236 54.484890 -179.762492 0.000000 0.000000 0.000000 
-0.162705 127.128021 -1.279819 0.000000 0.000000 0.000000 -87.588481 -7.009195 -1.384672 3.602430 23.231828 12.688584 -4.793239 0.929413 4.149903 16.837311 27.694785 -19.786993 -3.563332 -0.283107 0.645375 0.000000 0.000000 0.000000 -90.008861 -3.476671 0.837525 1.709500 -24.003153 -16.111451 -3.079969 -2.639706 -4.803755 29.170283 -30.438636 29.742704 -10.183700 0.587032 -1.292098 0.000000 0.000000 0.000000 -87.702901 -7.534999 -3.187415 0.852525 -0.377577 0.137697 -1.326327 0.464847 -0.237836 0.725684 0.868270 -0.268630 0.000000 0.000000 0.000000 -1.508641 0.517913 -0.277768 -5.535293 4.484165 -8.721264 5.229151 8.624820 -12.406217 0.000000 0.000000 0.000000 -0.355253 0.529626 -0.132215 0.331416 -6.242109 -0.901259 -0.540045 1.987801 -2.790829 45.060107 -42.196362 -31.572399 4.104352 -86.282474 3.380172 0.000000 0.000000 0.000000 -0.158321 0.900114 -0.443006 0.382361 0.530263 2.817404 7.608873 7.931021 -0.942447 -4.736663 1.613489 80.739734 -179.276975 54.501177 -179.744856 0.000000 0.000000 0.000000 
-0.150385 127.139145 -1.274506 0.000000 0.000000 0.000000 -87.606212 -7.005228 -1.367965 3.600565 23.244968 12.673163 -4.783805 0.870332 4.149447 16.808324 27.665939 -19.792761 -3.549416 -0.285474 0.638522 0.000000 0.000000 0.000000 -90.010801 -3.454633 0.868837 1.688506 -24.045602 -16.130626 -3.063686 -2.598695 -4.813222 29.158074 -30.431409 29.734351 -10.282120 0.586386 -1.282058 0.000000 0.000000 0.000000 -87.731744 -7.556730 -3.214743 0.861574 -0.398969 0.161636 -1.331385 0.464853 -0.231270 0.729614 0.866063 -0.261048 0.000000 0.000000 0.000000 -1.523732 0.519287 -0.269008 -5.700331 4.493009 -8.660513 6.250899 8.752466 -13.045079 0.000000 0.000000 0.000000 -0.345420 0.519074 -0.130631 0.322349 -6.205769 -0.978176 -0.528319 1.990479 -2.708428 44.989674 -42.195857 -31.627693 3.729907 -86.215292 3.026357 0.000000 0.000000 0.000000 -0.151970 0.899584 -0.440127 0.388921 0.464855 2.863969 7.611119 7.974188 -0.959325 -4.758418 1.761554 80.644822 -179.245829 54.480703 -179.745362 0.000000 0.000000 0.000000 
